HIERARCHY
ROOT Hips
{
	OFFSET 0.00000 0.00000 0.00000
	CHANNELS 6 Xposition Yposition Zposition Zrotation Yrotation Xrotation 
	JOINT LHipJoint
	{
		OFFSET 0 0 0
		CHANNELS 3 Zrotation Yrotation Xrotation
		JOINT LeftUpLeg
		{
			OFFSET 1.80322 -1.53100 0.99595
			CHANNELS 3 Zrotation Yrotation Xrotation
			JOINT LeftLeg
			{
				OFFSET 2.25177 -6.18669 0.00000
				CHANNELS 3 Zrotation Yrotation Xrotation
				JOINT LeftFoot
				{
					OFFSET 2.26601 -6.22582 0.00000
					CHANNELS 3 Zrotation Yrotation Xrotation
					JOINT LeftToeBase
					{
						OFFSET 0.23701 -0.65119 2.15848
						CHANNELS 3 Zrotation Yrotation Xrotation
						End Site
						{
							OFFSET 0.00000 -0.00000 1.12949
						}
					}
				}
			}
		}
	}
	JOINT RHipJoint
	{
		OFFSET 0 0 0
		CHANNELS 3 Zrotation Yrotation Xrotation
		JOINT RightUpLeg
		{
			OFFSET -1.93977 -1.53100 0.99595
			CHANNELS 3 Zrotation Yrotation Xrotation
			JOINT RightLeg
			{
				OFFSET -2.28036 -6.26523 0.00000
				CHANNELS 3 Zrotation Yrotation Xrotation
				JOINT RightFoot
				{
					OFFSET -2.25490 -6.19528 0.00000
					CHANNELS 3 Zrotation Yrotation Xrotation
					JOINT RightToeBase
					{
						OFFSET -0.28375 -0.77960 2.23137
						CHANNELS 3 Zrotation Yrotation Xrotation
						End Site
						{
							OFFSET -0.00000 -0.00000 1.17899
						}
					}
				}
			}
		}
	}
	JOINT LowerBack
	{
		OFFSET 0 0 0
		CHANNELS 3 Zrotation Yrotation Xrotation
		JOINT Spine
		{
			OFFSET -0.00088 2.12090 -0.02806
			CHANNELS 3 Zrotation Yrotation Xrotation
			JOINT Spine1
			{
				OFFSET -0.00286 2.09666 0.12974
				CHANNELS 3 Zrotation Yrotation Xrotation
				JOINT Neck
				{
					OFFSET 0 0 0
					CHANNELS 3 Zrotation Yrotation Xrotation
					JOINT Neck1
					{
						OFFSET 0.07328 1.83526 0.07290
						CHANNELS 3 Zrotation Yrotation Xrotation
						JOINT Head
						{
							OFFSET -0.06683 1.74974 -0.49542
							CHANNELS 3 Zrotation Yrotation Xrotation
							End Site
							{
								OFFSET -0.03398 1.85163 -0.17573
							}
						}
					}
				}
				JOINT LeftShoulder
				{
					OFFSET 0 0 0
					CHANNELS 3 Zrotation Yrotation Xrotation
					JOINT LeftArm
					{
						OFFSET 3.02113 1.18018 0.40602
						CHANNELS 3 Zrotation Yrotation Xrotation
						JOINT LeftForeArm
						{
							OFFSET 4.58538 -0.00000 -0.00000
							CHANNELS 3 Zrotation Yrotation Xrotation
							JOINT LeftHand
							{
								OFFSET 2.68935 -0.00000 -0.00000
								CHANNELS 3 Zrotation Yrotation Xrotation
								JOINT LeftFingerBase
								{
									OFFSET 0 0 0
									CHANNELS 3 Zrotation Yrotation Xrotation
									JOINT LeftHandIndex1
									{
										OFFSET 0.58506 -0.00000 -0.00000
										CHANNELS 3 Zrotation Yrotation Xrotation
										End Site
										{
											OFFSET 0.47169 -0.00000 -0.00000
										}
									}
								}
								JOINT LThumb
								{
									OFFSET 0 0 0
									CHANNELS 3 Zrotation Yrotation Xrotation
									End Site
									{
										OFFSET 0.47889 -0.00000 0.47889
									}
								}
							}
						}
					}
				}
				JOINT RightShoulder
				{
					OFFSET 0 0 0
					CHANNELS 3 Zrotation Yrotation Xrotation
					JOINT RightArm
					{
						OFFSET -2.95074 1.18843 0.31430
						CHANNELS 3 Zrotation Yrotation Xrotation
						JOINT RightForeArm
						{
							OFFSET -4.47450 -0.00000 -0.00000
							CHANNELS 3 Zrotation Yrotation Xrotation
							JOINT RightHand
							{
								OFFSET -2.93896 -0.00000 -0.00000
								CHANNELS 3 Zrotation Yrotation Xrotation
								JOINT RightFingerBase
								{
									OFFSET 0 0 0
									CHANNELS 3 Zrotation Yrotation Xrotation
									JOINT RightHandIndex1
									{
										OFFSET -0.40509 -0.00000 -0.00000
										CHANNELS 3 Zrotation Yrotation Xrotation
										End Site
										{
											OFFSET -0.32660 -0.00000 -0.00000
										}
									}
								}
								JOINT RThumb
								{
									OFFSET 0 0 0
									CHANNELS 3 Zrotation Yrotation Xrotation
									End Site
									{
										OFFSET -0.33158 -0.00000 0.33158
									}
								}
							}
						}
					}
				}
			}
		}
	}
}
MOTION
Frames: 15
Frame Time: .0083333
-0.0139 15.5173 7.7529 0 0 0 0 0 0 -21 0 0 0 0 0 0 0 0 0 0 0 0 0 0 21 0 0 0 0 0 0 0 0 0 0 0 0 0 0 0 0 0 0 0 0 0 0 -16 0 0 21 0 0 11 0 0 0 -8 0 0 0 0 0 0 0 0 0 0 0 0 0 0 0 0 0 0 0 0 8 0 0 0 0 0 0 0 0 0 0 0 0 0 0 0 0 0
-0.0139 15.5173 7.7529 0.8078 -2.4997 10.5714 0.0000 0.0000 0.0000 -21.3928 -17.6557 -15.1561 2.8373 10.4269 30.3706 0.9456 8.8181 -23.5718 0.0041 0.4139 1.1372 0.0000 0.0000 0.0000 18.4623 14.8147 -20.0674 -3.7920 -11.8783 35.3028 -1.4806 -2.1607 -23.8560 -0.0147 -0.7838 2.1542 -0.8390 -1.9199 -5.4350 -0.4635 -2.5785 -7.5929 -0.0403 -1.2678 -4.8066 -4.3591 -9.2747 -5.8798 -2.5639 -12.1446 31.6796 -1.5894 -6.4085 11.3645 0.0000 0.0000 0.0000 -89.6095 13.7087 10.7948 18.7779 -29.1418 -4.9222 -0.0000 -0.0000 10.9753 3.5742 12.8876 0.7982 -7.1250 0.0000 -0.0000 -21.0782 41.8875 1.7025 0.0000 0.0000 0.0000 84.5737 -5.8532 22.8431 -13.4733 21.9768 -2.6278 0.0000 0.0000 11.6324 -7.6390 -9.6545 1.2885 7.1250 -0.0000 -0.0000 16.6979 -39.1752 2.4777
-0.0228 15.5159 7.7602 0.8041 -2.4937 10.5439 0.0000 0.0000 0.0000 -21.3669 -17.6399 -15.0993 2.8399 10.4313 30.3851 0.9754 8.6928 -23.7222 0.0106 0.6634 1.8230 0.0000 0.0000 0.0000 18.5172 14.7286 -20.0311 -3.7921 -11.8784 35.3032 -1.4897 -2.0733 -23.8882 -0.0160 -0.8168 2.2449 -0.8392 -1.9425 -5.4926 -0.4707 -2.6087 -7.6256 -0.0494 -1.2832 -4.8091 -4.5202 -9.3894 -5.8527 -2.4388 -12.3237 31.6144 -1.5377 -6.4946 11.3587 -0.0000 0.0000 0.0000 -89.5237 13.7535 10.9823 18.7646 -29.1251 -4.9157 -0.0000 -0.0000 11.3618 3.6299 12.6074 0.7933 -7.1250 0.0000 -0.0000 -20.9377 41.6310 1.8297 -0.0000 0.0000 0.0000 84.5630 -5.7720 23.4079 -13.6322 22.2064 -2.6875 0.0000 0.0000 11.0577 -7.7109 -9.6188 1.2960 7.1250 -0.0000 -0.0000 16.6285 -39.1465 2.4789
-0.0318 15.5147 7.7670 0.8159 -2.5035 10.5300 0.0000 0.0000 0.0000 -21.3564 -17.6460 -15.0506 2.8427 10.4360 30.4005 0.9806 8.7016 -23.7730 0.0101 0.6498 1.7858 0.0000 0.0000 0.0000 18.5501 14.6595 -20.0060 -3.7924 -11.8788 35.3047 -1.4975 -1.9859 -23.9117 -0.0174 -0.8524 2.3427 -0.8658 -1.9705 -5.5383 -0.4772 -2.6458 -7.6743 -0.0425 -1.3006 -4.8344 -4.6246 -9.4739 -5.8676 -2.3593 -12.4548 31.5935 -1.5099 -6.5572 11.3702 -0.0000 0.0000 0.0000 -89.4452 13.7778 11.0859 18.7907 -29.1578 -4.9284 -0.0000 -0.0000 11.5552 3.4421 12.6854 0.7567 -7.1250 0.0000 -0.0000 -21.1225 41.6860 1.8173 -0.0000 0.0000 0.0000 84.5566 -5.7132 24.0054 -13.8295 22.4904 -2.7625 0.0000 0.0000 10.3840 -7.7386 -9.7104 1.3130 7.1250 -0.0000 -0.0000 16.6287 -39.2369 2.4406
-0.0399 15.5134 7.7749 0.8129 -2.4918 10.4868 0.0000 0.0000 0.0000 -21.3448 -17.6402 -14.9699 2.8465 10.4423 30.4214 0.9822 8.7209 -23.8019 0.0092 0.6184 1.6993 0.0000 0.0000 0.0000 18.6078 14.5572 -19.9479 -3.7915 -11.8776 35.3004 -1.5043 -1.9119 -23.9324 -0.0175 -0.8547 2.3490 -0.8762 -1.9954 -5.5851 -0.4731 -2.6785 -7.7070 -0.0339 -1.3163 -4.8421 -4.7051 -9.5285 -5.8901 -2.2902 -12.5441 31.6046 -1.4864 -6.5988 11.3926 0.0000 0.0000 0.0000 -89.3689 13.8123 11.1898 18.8459 -29.2267 -4.9554 -0.0000 -0.0000 11.5685 3.3156 12.7407 0.7320 -7.1250 0.0000 -0.0000 -21.2479 41.7254 1.8074 0.0000 0.0000 0.0000 84.5248 -5.6847 24.5572 -14.0323 22.7808 -2.8406 0.0000 0.0000 9.7149 -7.7356 -9.6421 1.3034 7.1250 -0.0000 -0.0000 16.6137 -39.1708 2.4663
-0.0483 15.5121 7.7824 0.7981 -2.4914 10.4555 0.0000 0.0000 0.0000 -21.3149 -17.6394 -14.9033 2.8508 10.4495 30.4450 0.9902 8.7199 -23.8672 0.0098 0.6393 1.7567 0.0000 0.0000 0.0000 18.6744 14.4770 -19.8971 -3.7899 -11.8754 35.2927 -1.5116 -1.8352 -23.9563 -0.0182 -0.8713 2.3948 -0.8727 -2.0165 -5.6282 -0.4695 -2.7067 -7.7517 -0.0333 -1.3305 -4.8655 -4.8031 -9.5905 -5.8824 -2.2022 -12.6474 31.5921 -1.4523 -6.6472 11.4030 0.0000 0.0000 0.0000 -89.2892 13.8558 11.3001 18.8934 -29.2859 -4.9786 -0.0000 -0.0000 11.6433 3.1989 12.8104 0.7100 -7.1250 0.0000 -0.0000 -21.3700 41.7789 1.7891 0.0000 0.0000 0.0000 84.5051 -5.6548 25.1204 -14.2437 23.0821 -2.9230 0.0000 0.0000 9.0336 -7.7339 -9.6896 1.3094 7.1250 -0.0000 -0.0000 16.6273 -39.2165 2.4490
-0.0565 15.5108 7.7901 0.7814 -2.4933 10.4257 0.0000 0.0000 0.0000 -21.2836 -17.6418 -14.8401 2.8562 10.4586 30.4750 0.9971 8.7299 -23.9326 0.0099 0.6432 1.7676 0.0000 0.0000 0.0000 18.7419 14.4025 -19.8425 -3.7869 -11.8713 35.2783 -1.5187 -1.7614 -23.9797 -0.0188 -0.8864 2.4364 -0.8684 -2.0346 -5.6703 -0.4651 -2.7309 -7.8007 -0.0319 -1.3426 -4.8939 -4.8861 -9.6397 -5.8724 -2.1188 -12.7339 31.5897 -1.4204 -6.6868 11.4153 -0.0000 0.0000 0.0000 -89.2061 13.9017 11.4028 18.9505 -29.3571 -5.0066 -0.0000 -0.0000 11.6618 3.0964 12.9199 0.6930 -7.1250 0.0000 -0.0000 -21.4938 41.8711 1.7489 -0.0000 0.0000 0.0000 84.4850 -5.6377 25.6824 -14.4685 23.4005 -3.0117 0.0000 0.0000 8.3166 -7.7153 -9.8030 1.3214 7.1250 -0.0000 -0.0000 16.6719 -39.3245 2.4102
-0.0645 15.5095 7.7980 0.7602 -2.4971 10.3969 0.0000 0.0000 0.0000 -21.2486 -17.6473 -14.7751 2.8617 10.4677 30.5051 1.0040 8.7461 -24.0028 0.0101 0.6478 1.7801 0.0000 0.0000 0.0000 18.8131 14.3290 -19.7869 -3.7837 -11.8668 35.2625 -1.5261 -1.6850 -24.0053 -0.0195 -0.9017 2.4783 -0.8604 -2.0498 -5.7146 -0.4589 -2.7512 -7.8511 -0.0308 -1.3529 -4.9226 -4.9530 -9.6774 -5.8597 -2.0416 -12.8049 31.5927 -1.3914 -6.7183 11.4272 -0.0000 0.0000 0.0000 -89.1186 13.9449 11.5003 19.0105 -29.4317 -5.0360 -0.0000 -0.0000 11.6542 3.0165 13.0502 0.6817 -7.1250 0.0000 -0.0000 -21.6059 41.9845 1.6951 -0.0000 0.0000 0.0000 84.4638 -5.6303 26.2390 -14.7032 23.7311 -3.1055 0.0000 0.0000 7.5786 -7.6909 -9.9435 1.3358 7.1250 -0.0000 -0.0000 16.7286 -39.4581 2.3619
-0.0724 15.5083 7.8060 0.7448 -2.5016 10.3720 0.0000 0.0000 0.0000 -21.2206 -17.6539 -14.7120 2.8664 10.4756 30.5311 1.0108 8.7628 -24.0721 0.0102 0.6527 1.7938 0.0000 0.0000 0.0000 18.8751 14.2519 -19.7385 -3.7810 -11.8631 35.2494 -1.5345 -1.6003 -24.0347 -0.0202 -0.9179 2.5228 -0.8588 -2.0636 -5.7634 -0.4544 -2.7696 -7.9024 -0.0280 -1.3620 -4.9498 -5.0044 -9.7055 -5.8532 -1.9703 -12.8628 31.6054 -1.3661 -6.7426 11.4421 -0.0000 -0.0000 0.0000 -89.0253 13.9785 11.5901 19.0683 -29.5035 -5.0644 -0.0000 -0.0000 11.6436 2.9662 13.1866 0.6772 -7.1250 0.0000 -0.0000 -21.6953 42.1063 1.6339 -0.0000 -0.0000 0.0000 84.4434 -5.6295 26.7840 -14.9448 24.0692 -3.2034 0.0000 0.0000 6.8220 -7.6536 -10.1075 1.3510 7.1250 -0.0000 -0.0000 16.8027 -39.6133 2.3066
-0.0802 15.5071 7.8140 0.7365 -2.5055 10.3515 0.0000 0.0000 0.0000 -21.2003 -17.6666 -14.6499 2.8701 10.4818 30.5514 1.0162 8.7871 -24.1358 0.0102 0.6519 1.7915 0.0000 0.0000 0.0000 18.9263 14.1675 -19.7004 -3.7792 -11.8607 35.2408 -1.5436 -1.5076 -24.0668 -0.0208 -0.9306 2.5578 -0.8673 -2.0766 -5.8192 -0.4506 -2.7866 -7.9534 -0.0206 -1.3700 -4.9722 -5.0422 -9.7271 -5.8474 -1.9081 -12.9111 31.6249 -1.3451 -6.7621 11.4579 0.0000 -0.0000 0.0000 -88.9299 14.0039 11.6641 19.1247 -29.5733 -5.0923 -0.0000 -0.0000 11.6534 2.9369 13.3243 0.6774 -7.1250 0.0000 -0.0000 -21.7678 42.2313 1.5689 0.0000 -0.0000 0.0000 84.4205 -5.6339 27.3191 -15.1947 24.4167 -3.3060 0.0000 0.0000 6.0517 -7.5988 -10.3318 1.3706 7.1250 -0.0000 -0.0000 16.9079 -39.8249 2.2307
-0.0877 15.5060 7.8221 0.7379 -2.5069 10.3334 0.0000 0.0000 0.0000 -21.1919 -17.6796 -14.5860 2.8724 10.4856 30.5642 1.0207 8.8118 -24.1921 0.0101 0.6497 1.7853 0.0000 0.0000 0.0000 18.9645 14.0715 -19.6715 -3.7788 -11.8601 35.2387 -1.5538 -1.4034 -24.1028 -0.0214 -0.9434 2.5930 -0.8832 -2.0898 -5.8798 -0.4506 -2.8037 -8.0036 -0.0132 -1.3776 -4.9909 -5.0645 -9.7417 -5.8543 -1.8558 -12.9487 31.6583 -1.3302 -6.7758 11.4793 -0.0000 -0.0000 0.0000 -88.8293 14.0197 11.7251 19.1729 -29.6330 -5.1161 -0.0000 -0.0000 11.7042 2.9392 13.4416 0.6838 -7.1250 0.0000 -0.0000 -21.8068 42.3405 1.5099 -0.0000 -0.0000 0.0000 84.3996 -5.6432 27.8268 -15.4400 24.7555 -3.4081 0.0000 0.0000 5.2905 -7.5375 -10.5036 1.3818 7.1250 -0.0000 -0.0000 17.0054 -39.9852 2.1748
-0.0950 15.5049 7.8304 0.7460 -2.5071 10.3177 0.0000 0.0000 0.0000 -21.1915 -17.6918 -14.5232 2.8739 10.4880 30.5719 1.0249 8.8337 -24.2435 0.0102 0.6507 1.7880 0.0000 0.0000 0.0000 18.9929 13.9682 -19.6490 -3.7791 -11.8605 35.2404 -1.5647 -1.2926 -24.1416 -0.0217 -0.9506 2.6128 -0.9037 -2.1016 -5.9444 -0.4537 -2.8188 -8.0538 -0.0068 -1.3842 -5.0075 -5.0799 -9.7520 -5.8648 -1.8066 -12.9806 31.7014 -1.3173 -6.7864 11.5044 -0.0000 0.0000 0.0000 -88.7255 14.0340 11.7730 19.2180 -29.6886 -5.1384 -0.0000 -0.0000 11.8050 2.9659 13.5418 0.6951 -7.1250 0.0000 -0.0000 -21.8191 42.4361 1.4563 -0.0000 0.0000 0.0000 84.3827 -5.6604 28.3256 -15.6823 25.0879 -3.5102 0.0000 0.0000 4.4865 -7.5264 -10.6320 1.3964 7.1250 -0.0000 -0.0000 17.0494 -40.1080 2.1274
-0.1021 15.5038 7.8386 0.7572 -2.5050 10.3037 0.0000 0.0000 0.0000 -21.1945 -17.7021 -14.4619 2.8746 10.4893 30.5761 1.0285 8.8529 -24.2876 0.0101 0.6488 1.7830 0.0000 0.0000 0.0000 19.0164 13.8676 -19.6276 -3.7799 -11.8617 35.2444 -1.5758 -1.1844 -24.1836 -0.0221 -0.9587 2.6352 -0.9238 -2.1107 -6.0088 -0.4600 -2.8305 -8.1057 -0.0036 -1.3891 -5.0262 -5.0879 -9.7595 -5.8824 -1.7644 -13.0078 31.7585 -1.3085 -6.7946 11.5352 0.0000 0.0000 0.0000 -88.6200 14.0506 11.8061 19.2579 -29.7378 -5.1581 -0.0000 -0.0000 11.9605 3.0202 13.6146 0.7116 -7.1250 0.0000 -0.0000 -21.7985 42.5091 1.4132 0.0000 0.0000 0.0000 84.3713 -5.6838 28.7948 -15.9194 25.4113 -3.6113 0.0000 0.0000 3.6976 -7.5145 -10.7524 1.4097 7.1250 -0.0000 -0.0000 17.0920 -40.2227 2.0830
-0.1088 15.5028 7.8470 0.7602 -2.5012 10.2883 0.0000 0.0000 0.0000 -21.1904 -17.7104 -14.3986 2.8754 10.4905 30.5802 1.0321 8.8709 -24.3315 0.0100 0.6470 1.7781 0.0000 0.0000 0.0000 19.0489 13.7692 -19.6002 -3.7805 -11.8625 35.2471 -1.5867 -1.0812 -24.2265 -0.0223 -0.9637 2.6488 -0.9311 -2.1185 -6.0724 -0.4650 -2.8406 -8.1565 -0.0063 -1.3939 -5.0445 -5.0975 -9.7623 -5.8978 -1.7166 -13.0297 31.8150 -1.2967 -6.8000 11.5659 -0.0000 -0.0000 0.0000 -88.5162 14.0691 11.8218 19.2949 -29.7834 -5.1765 -0.0000 -0.0000 12.1570 3.0819 13.6750 0.7293 -7.1250 0.0000 -0.0000 -21.7673 42.5717 1.3755 -0.0000 -0.0000 0.0000 84.3663 -5.7089 29.2238 -16.1505 25.7243 -3.7110 0.0000 0.0000 2.9535 -7.4939 -10.8161 1.4141 7.1250 -0.0000 -0.0000 17.1269 -40.2823 2.0615
-0.1153 15.5018 7.8555 0.7638 -2.4950 10.2719 0.0000 0.0000 0.0000 -21.1877 -17.7129 -14.3369 2.8763 10.4920 30.5852 1.0358 8.8832 -24.3709 0.0098 0.6404 1.7597 0.0000 0.0000 0.0000 19.0804 13.6828 -19.5647 -3.7807 -11.8627 35.2480 -1.5971 -0.9925 -24.2712 -0.0225 -0.9693 2.6642 -0.9374 -2.1246 -6.1354 -0.4707 -2.8486 -8.2060 -0.0102 -1.3977 -5.0622 -5.1047 -9.7630 -5.9180 -1.6719 -13.0481 31.8781 -1.2865 -6.8036 11.5997 0.0000 0.0000 0.0000 -88.4120 14.0842 11.8269 19.3245 -29.8199 -5.1912 -0.0000 -0.0000 12.3719 3.1676 13.7129 0.7516 -7.1250 0.0000 -0.0000 -21.7075 42.6156 1.3464 0.0000 0.0000 0.0000 84.3660 -5.7346 29.6089 -16.3744 26.0257 -3.8088 0.0000 0.0000 2.2668 -7.4563 -10.8756 1.4145 7.1250 -0.0000 -0.0000 17.1750 -40.3362 2.0440
